<svg xmlns="http://www.w3.org/2000/svg" width="60" height="60" viewBox="0 0 60 60" fill="none">
  <ellipse cx="30" cy="30" rx="30" ry="30" transform="rotate(-180 30 30)" fill="#8400FF"/>
  <path d="M30 59.5C13.7076 59.5 0.500001 46.2924 0.500002 30C0.500006 13.7076 13.7076 0.499995 30 0.499997C46.2924 0.5 59.5 13.7076 59.5 30C59.5 46.2924 46.2924 59.5 30 59.5Z" stroke="black" stroke-opacity="0.1"/>
  <path d="M42.4766 28.4833L42.4766 31.5293L21.5897 31.5293L30.9453 40.8849L28.7696 43.0606L15.7153 30.0063L28.7696 16.952L30.9453 19.1277L21.5897 28.4833L42.4766 28.4833Z" fill="white"/>
  <path d="M16.4224 30.0063L28.7698 17.6589L30.2386 19.1276L20.3826 28.9836L21.5897 28.9836L41.9763 28.9843L41.9763 31.0297L21.5897 31.029L20.3826 31.029L30.2386 40.885L28.7698 42.3537L16.4224 30.0063Z" stroke="black" stroke-opacity="0.1"/>
</svg>