<svg xmlns="http://www.w3.org/2000/svg" width="60" height="60" viewBox="0 0 60 60" fill="none">
  <ellipse cx="30" cy="30" rx="30" ry="30" fill="#8400FF"/>
  <path d="M30 59.5C13.7076 59.5 0.5 46.2924 0.5 30C0.5 13.7076 13.7076 0.5 30 0.5C46.2924 0.5 59.5 13.7076 59.5 30C59.5 46.2924 46.2924 59.5 30 59.5Z" stroke="black" stroke-opacity="0.1"/>
  <path d="M17.5234 28.4833L17.5234 31.5293L38.4103 31.5293L29.0547 40.8849L31.2304 43.0606L44.2847 30.0063L31.2304 16.952L29.0547 19.1277L38.4103 28.4833L17.5234 28.4833Z" fill="white"/>
  <path d="M43.5776 30.0063L31.2302 17.6589L29.7614 19.1276L39.6174 28.9836L38.4103 28.9836L18.0237 28.9843L18.0237 31.0297L38.4103 31.029L39.6174 31.029L29.7614 40.885L31.2302 42.3537L43.5776 30.0063Z" stroke="black" stroke-opacity="0.1"/>
</svg>
